<svg viewBox="0 0 640 470" xmlns="http://www.w3.org/2000/svg">
  <title>Skager — combined energies</title>
  <g transform="translate(149.5,20) scale(1.55)">
    <path d="M 14.00,65.00 Q 20.20,53.14 26.40,45.05 Q 32.60,36.96 38.80,32.63 Q 45.00,28.30 51.20,27.60 Q 57.40,26.91 63.60,29.68 Q 69.80,32.44 76.00,38.35 Q 82.20,44.27 88.40,52.94 Q 94.60,61.62 100.80,71.55 Q 107.00,81.49 113.20,90.31 Q 119.40,99.13 125.60,105.13 Q 131.80,111.13 138.00,113.30 Q 144.20,115.47 150.40,113.68 Q 156.60,111.90 162.80,106.02 Q 169.00,100.15 175.20,90.28 Q 181.40,80.42 187.60,69.71 Q 193.80,59.00 200.00,52.5 L 206.00,65.00" fill="none" stroke="#3E8E9E" stroke-width="26" stroke-linecap="round"></path>
<path d="M 14.00,65.00 Q 20.20,76.86 26.40,84.95 Q 32.60,93.04 38.80,97.37 Q 45.00,101.70 51.20,102.40 Q 57.40,103.09 63.60,100.32 Q 69.80,97.56 76.00,91.65 Q 82.20,85.73 88.40,77.06 Q 94.60,68.38 100.80,58.45 Q 107.00,48.51 113.20,39.69 Q 119.40,30.87 125.60,24.87 Q 131.80,18.87 138.00,16.70 Q 144.20,14.53 150.40,16.32 Q 156.60,18.10 162.80,23.98 Q 169.00,29.85 175.20,39.72 Q 181.40,49.58 187.60,60.29 Q 193.80,71.00 200.00,77.5 L 206.00,65.00" fill="none" stroke="#1C3B5E" stroke-width="26" stroke-linecap="round"></path>

  </g>
  <g fill="#1C4A6E"><path transform="translate(165.63,375.00) scale(0.068000,-0.068000)" d="M106 212 38 166Q61 120 97.5 79.5Q134 39 182.5 14.5Q231 -10 288 -10Q330 -10 368.5 4.0Q407 18 437.5 44.0Q468 70 485.5 107.0Q503 144 503 190Q503 238 486.0 272.5Q469 307 442.5 331.5Q416 356 385.0 372.0Q354 388 326 398Q265 419 229.5 440.5Q194 462 179.0 486.5Q164 511 164 540Q164 574 190.0 601.5Q216 629 273 629Q314 629 342.5 613.0Q371 597 391.0 572.0Q411 547 424 521L497 563Q480 600 450.0 633.5Q420 667 377.5 688.5Q335 710 278 710Q219 710 173.0 686.5Q127 663 101.0 622.0Q75 581 75 529Q75 481 93.5 448.0Q112 415 141.0 392.5Q170 370 202.0 355.5Q234 341 260 332Q300 318 335.5 300.5Q371 283 393.0 255.0Q415 227 415 180Q415 132 381.0 101.0Q347 70 291 70Q249 70 216.0 88.0Q183 106 156.5 138.0Q130 170 106 212Z"></path><path transform="translate(214.89,375.00) scale(0.068000,-0.068000)" d="M80 700V0H165V700ZM440 700 139 370 455 0H560L242 372L545 700Z"></path><path transform="translate(265.31,375.00) scale(0.068000,-0.068000)" d="M147 210H517L487 290H177ZM330 542 450 260 458 240 560 0H655L330 735L5 0H100L204 246L212 264Z"></path><path transform="translate(322.19,375.00) scale(0.068000,-0.068000)" d="M405 275H638Q629 234 609.5 198.0Q590 162 560.0 134.0Q530 106 488.5 90.5Q447 75 395 75Q321 75 261.0 110.0Q201 145 165.5 207.0Q130 269 130 350Q130 432 165.5 493.5Q201 555 261.0 590.0Q321 625 395 625Q475 625 534.0 593.5Q593 562 626 506L686 561Q656 610 612.5 643.0Q569 676 514.5 693.0Q460 710 395 710Q319 710 254.0 683.5Q189 657 141.0 608.5Q93 560 66.5 494.0Q40 428 40 350Q40 272 66.5 206.0Q93 140 141.0 91.5Q189 43 254.0 16.5Q319 -10 395 -10Q475 -10 537.5 19.5Q600 49 643.0 100.0Q686 151 708.0 216.5Q730 282 730 355H405Z"></path><path transform="translate(386.89,375.00) scale(0.068000,-0.068000)" d="M127 0H480V80H127ZM127 620H480V700H127ZM127 340H460V420H127ZM80 700V0H165V700Z"></path><path transform="translate(436.29,375.00) scale(0.068000,-0.068000)" d="M205 345 445 0H550L300 345ZM80 700V0H165V700ZM127 625H270Q315 625 349.5 609.0Q384 593 403.5 563.0Q423 533 423 490Q423 447 403.5 417.0Q384 387 349.5 371.0Q315 355 270 355H127V280H270Q338 280 391.5 305.5Q445 331 476.5 378.5Q508 426 508 490Q508 555 476.5 602.0Q445 649 391.5 674.5Q338 700 270 700H127Z"></path></g>
  <g fill="#2B6898"><path transform="translate(193.53,420.00) scale(0.026000,-0.026000)" d="M111 230Q111 278 131.5 315.5Q152 353 187.5 374.0Q223 395 268 395Q305 395 337.5 383.5Q370 372 394.0 353.0Q418 334 428 311V411Q404 439 359.5 454.5Q315 470 268 470Q201 470 147.0 439.0Q93 408 61.5 354.0Q30 300 30 230Q30 161 61.5 106.5Q93 52 147.0 21.0Q201 -10 268 -10Q315 -10 359.5 5.5Q404 21 428 49V149Q418 127 394.0 107.5Q370 88 337.5 76.5Q305 65 268 65Q223 65 187.5 86.5Q152 108 131.5 145.0Q111 182 111 230Z"></path><path transform="translate(208.46,420.00) scale(0.026000,-0.026000)" d="M35 230Q35 161 66.5 106.5Q98 52 152.0 21.0Q206 -10 273 -10Q341 -10 394.5 21.0Q448 52 479.5 106.5Q511 161 511 230Q511 300 479.5 354.0Q448 408 394.5 439.0Q341 470 273 470Q206 470 152.0 439.0Q98 408 66.5 354.0Q35 300 35 230ZM116 230Q116 278 136.5 315.5Q157 353 192.5 374.0Q228 395 273 395Q318 395 353.5 374.0Q389 353 409.5 315.5Q430 278 430 230Q430 182 409.5 145.0Q389 108 353.5 86.5Q318 65 273 65Q228 65 192.5 86.5Q157 108 136.5 145.0Q116 182 116 230Z"></path><path transform="translate(225.15,420.00) scale(0.026000,-0.026000)" d="M705 290Q705 347 687.5 387.5Q670 428 637.0 449.0Q604 470 557 470Q511 470 475.0 448.5Q439 427 415 384Q399 425 364.5 447.5Q330 470 282 470Q239 470 207.5 451.0Q176 432 155 393V460H75V0H155V280Q155 316 168.0 342.0Q181 368 205.0 381.5Q229 395 262 395Q307 395 328.5 367.0Q350 339 350 280V0H430V280Q430 316 443.0 342.0Q456 368 480.0 381.5Q504 395 537 395Q582 395 603.5 367.0Q625 339 625 280V0H705Z"></path><path transform="translate(247.93,420.00) scale(0.026000,-0.026000)" d="M150 780H70V0H150ZM535 230Q535 305 504.0 358.5Q473 412 421.5 441.0Q370 470 307 470Q250 470 206.5 441.0Q163 412 138.5 358.5Q114 305 114 230Q114 156 138.5 102.0Q163 48 206.5 19.0Q250 -10 307 -10Q370 -10 421.5 19.0Q473 48 504.0 102.0Q535 156 535 230ZM454 230Q454 177 432.5 140.0Q411 103 375.5 84.0Q340 65 297 65Q262 65 228.0 84.0Q194 103 172.0 140.0Q150 177 150 230Q150 283 172.0 320.0Q194 357 228.0 376.0Q262 395 297 395Q340 395 375.5 376.0Q411 357 432.5 320.0Q454 283 454 230Z"></path><path transform="translate(265.25,420.00) scale(0.026000,-0.026000)" d="M75 650Q75 628 91.5 611.5Q108 595 130 595Q153 595 169.0 611.5Q185 628 185 650Q185 673 169.0 689.0Q153 705 130 705Q108 705 91.5 689.0Q75 673 75 650ZM90 460V0H170V460Z"></path><path transform="translate(274.51,420.00) scale(0.026000,-0.026000)" d="M370 280V0H450V290Q450 373 407.5 421.5Q365 470 292 470Q247 470 212.5 450.0Q178 430 155 388V460H75V0H155V280Q155 314 169.5 340.0Q184 366 210.5 380.5Q237 395 272 395Q320 395 345.0 366.0Q370 337 370 280Z"></path><path transform="translate(290.66,420.00) scale(0.026000,-0.026000)" d="M253 -10Q327 -10 381.5 19.5Q436 49 472 107L407 148Q382 106 346.0 85.5Q310 65 263 65Q216 65 183.0 85.0Q150 105 133.0 143.0Q116 181 116 235Q117 288 134.5 324.5Q152 361 184.5 380.5Q217 400 263 400Q302 400 331.0 383.0Q360 366 376.5 336.0Q393 306 393 265Q393 258 390.0 247.5Q387 237 384 232L416 278H86V210H479Q479 212 479.5 219.5Q480 227 480 234Q480 307 454.0 360.0Q428 413 379.5 441.5Q331 470 263 470Q195 470 143.5 440.0Q92 410 63.5 356.0Q35 302 35 230Q35 159 62.5 105.0Q90 51 139.5 20.5Q189 -10 253 -10Z"></path><path transform="translate(306.55,420.00) scale(0.026000,-0.026000)" d="M420 780V0H500V780ZM35 230Q35 156 66.0 102.0Q97 48 149.0 19.0Q201 -10 263 -10Q321 -10 364.0 19.0Q407 48 431.5 102.0Q456 156 456 230Q456 305 431.5 358.5Q407 412 364.0 441.0Q321 470 263 470Q201 470 149.0 441.0Q97 412 66.0 358.5Q35 305 35 230ZM116 230Q116 283 137.5 320.0Q159 357 195.0 376.0Q231 395 273 395Q308 395 342.0 376.0Q376 357 398.0 320.0Q420 283 420 230Q420 177 398.0 140.0Q376 103 342.0 84.0Q308 65 273 65Q231 65 195.0 84.0Q159 103 137.5 140.0Q116 177 116 230Z"></path><path transform="translate(334.17,420.00) scale(0.026000,-0.026000)" d="M253 -10Q327 -10 381.5 19.5Q436 49 472 107L407 148Q382 106 346.0 85.5Q310 65 263 65Q216 65 183.0 85.0Q150 105 133.0 143.0Q116 181 116 235Q117 288 134.5 324.5Q152 361 184.5 380.5Q217 400 263 400Q302 400 331.0 383.0Q360 366 376.5 336.0Q393 306 393 265Q393 258 390.0 247.5Q387 237 384 232L416 278H86V210H479Q479 212 479.5 219.5Q480 227 480 234Q480 307 454.0 360.0Q428 413 379.5 441.5Q331 470 263 470Q195 470 143.5 440.0Q92 410 63.5 356.0Q35 302 35 230Q35 159 62.5 105.0Q90 51 139.5 20.5Q189 -10 253 -10Z"></path><path transform="translate(350.06,420.00) scale(0.026000,-0.026000)" d="M370 280V0H450V290Q450 373 407.5 421.5Q365 470 292 470Q247 470 212.5 450.0Q178 430 155 388V460H75V0H155V280Q155 314 169.5 340.0Q184 366 210.5 380.5Q237 395 272 395Q320 395 345.0 366.0Q370 337 370 280Z"></path><path transform="translate(366.21,420.00) scale(0.026000,-0.026000)" d="M253 -10Q327 -10 381.5 19.5Q436 49 472 107L407 148Q382 106 346.0 85.5Q310 65 263 65Q216 65 183.0 85.0Q150 105 133.0 143.0Q116 181 116 235Q117 288 134.5 324.5Q152 361 184.5 380.5Q217 400 263 400Q302 400 331.0 383.0Q360 366 376.5 336.0Q393 306 393 265Q393 258 390.0 247.5Q387 237 384 232L416 278H86V210H479Q479 212 479.5 219.5Q480 227 480 234Q480 307 454.0 360.0Q428 413 379.5 441.5Q331 470 263 470Q195 470 143.5 440.0Q92 410 63.5 356.0Q35 302 35 230Q35 159 62.5 105.0Q90 51 139.5 20.5Q189 -10 253 -10Z"></path><path transform="translate(382.10,420.00) scale(0.026000,-0.026000)" d="M155 460H75V0H155ZM294 372 338 438Q320 457 298.5 463.5Q277 470 252 470Q220 470 189.0 445.0Q158 420 138.5 377.5Q119 335 119 280H155Q155 313 161.5 339.0Q168 365 185.0 380.0Q202 395 232 395Q252 395 265.0 389.5Q278 384 294 372Z"></path><path transform="translate(393.52,420.00) scale(0.026000,-0.026000)" d="M44 -30Q44 -89 73.0 -134.5Q102 -180 153.5 -205.0Q205 -230 272 -230Q330 -230 382.0 -203.0Q434 -176 467.0 -122.5Q500 -69 500 10V460H420V10Q420 -48 397.5 -84.5Q375 -121 341.0 -138.0Q307 -155 272 -155Q227 -155 194.0 -137.5Q161 -120 143.0 -91.5Q125 -63 125 -30ZM35 230Q35 156 66.0 102.0Q97 48 149.0 19.0Q201 -10 263 -10Q321 -10 364.0 19.0Q407 48 431.5 102.0Q456 156 456 230Q456 305 431.5 358.5Q407 412 364.0 441.0Q321 470 263 470Q201 470 149.0 441.0Q97 412 66.0 358.5Q35 305 35 230ZM116 230Q116 283 137.5 320.0Q159 357 195.0 376.0Q231 395 273 395Q299 395 325.0 384.0Q351 373 372.5 352.0Q394 331 407.0 300.5Q420 270 420 230Q420 177 398.0 140.0Q376 103 342.0 84.0Q308 65 273 65Q231 65 195.0 84.0Q159 103 137.5 140.0Q116 177 116 230Z"></path><path transform="translate(410.84,420.00) scale(0.026000,-0.026000)" d="M75 650Q75 628 91.5 611.5Q108 595 130 595Q153 595 169.0 611.5Q185 628 185 650Q185 673 169.0 689.0Q153 705 130 705Q108 705 91.5 689.0Q75 673 75 650ZM90 460V0H170V460Z"></path><path transform="translate(420.10,420.00) scale(0.026000,-0.026000)" d="M253 -10Q327 -10 381.5 19.5Q436 49 472 107L407 148Q382 106 346.0 85.5Q310 65 263 65Q216 65 183.0 85.0Q150 105 133.0 143.0Q116 181 116 235Q117 288 134.5 324.5Q152 361 184.5 380.5Q217 400 263 400Q302 400 331.0 383.0Q360 366 376.5 336.0Q393 306 393 265Q393 258 390.0 247.5Q387 237 384 232L416 278H86V210H479Q479 212 479.5 219.5Q480 227 480 234Q480 307 454.0 360.0Q428 413 379.5 441.5Q331 470 263 470Q195 470 143.5 440.0Q92 410 63.5 356.0Q35 302 35 230Q35 159 62.5 105.0Q90 51 139.5 20.5Q189 -10 253 -10Z"></path><path transform="translate(435.99,420.00) scale(0.026000,-0.026000)" d="M94 141 31 102Q44 75 69.5 49.0Q95 23 132.0 6.5Q169 -10 215 -10Q286 -10 329.5 30.0Q373 70 373 130Q373 171 353.5 197.0Q334 223 301.0 241.5Q268 260 228 276Q204 286 182.0 297.0Q160 308 146.0 322.0Q132 336 132 354Q132 377 150.0 388.0Q168 399 193 399Q229 399 257.5 382.0Q286 365 305 339L369 380Q355 406 330.0 426.0Q305 446 272.5 458.0Q240 470 203 470Q166 470 131.5 457.0Q97 444 75.5 417.0Q54 390 54 349Q54 309 74.5 282.5Q95 256 125.5 239.5Q156 223 186 211Q213 201 237.0 189.5Q261 178 276.5 161.5Q292 145 292 121Q292 94 272.5 78.5Q253 63 219 63Q191 63 167.5 73.5Q144 84 126.0 102.0Q108 120 94 141Z"></path></g>
</svg>